<svg version="1.1" id="Layer_1" xmlns="http://www.w3.org/2000/svg" xmlns:xlink="http://www.w3.org/1999/xlink" x="0px" y="0px"
	 width="162" viewBox="0 0 592 592" enable-background="new 0 0 592 592" xml:space="preserve">
<path fill="#000000" opacity="1.000000" stroke="none" 
	d="
M232.785553,188.977478 
	C240.372360,190.049896 247.492126,189.377060 254.622711,189.391937 
	C271.012390,189.426147 287.805573,186.582535 303.675201,192.123215 
	C311.681915,194.918671 318.184357,194.294800 325.887939,191.396973 
	C334.089508,188.311829 343.188660,188.038757 352.053772,189.462845 
	C355.480103,190.013229 358.344574,189.539261 360.337067,186.419937 
	C361.897491,183.976990 364.478455,183.116028 367.017029,182.340164 
	C377.674500,179.082916 387.794037,180.983826 397.330688,186.165771 
	C400.772369,188.035889 402.658783,191.477432 403.683838,195.374710 
	C404.602356,198.866959 405.929382,201.661743 410.686584,201.630096 
	C415.243835,201.599777 416.931488,199.359467 417.872894,195.629105 
	C420.523438,185.126083 429.322113,183.055496 438.054535,181.367752 
	C443.080444,180.396362 448.353210,180.177368 453.407654,181.638718 
	C461.184509,183.887131 465.022949,189.338699 465.284515,197.462173 
	C465.548187,205.653091 464.363098,213.203629 459.218323,220.069290 
	C455.384399,225.185593 455.383331,231.305191 457.562286,237.278152 
	C459.616333,242.908707 461.577118,248.550308 462.134216,254.568375 
	C462.265778,255.989716 462.739258,257.383728 464.119354,257.787384 
	C471.364197,259.906372 476.138672,265.127258 480.727875,270.641327 
	C481.114899,271.106293 481.837646,271.291809 482.366089,271.585815 
	C485.803101,269.978821 485.414276,265.561401 488.538147,263.867584 
	C492.348297,261.801697 496.053406,259.569824 500.568115,259.334686 
	C512.195251,258.729034 523.921875,257.342010 535.333923,260.439667 
	C546.029785,263.342926 551.256714,273.475342 548.620544,284.752960 
	C547.337219,290.243073 546.414185,295.855988 540.995605,299.308136 
	C539.237061,300.428497 539.497070,302.723602 539.550781,304.821198 
	C540.062256,324.790771 540.563232,344.760712 539.027100,364.718994 
	C537.681824,382.198364 525.605652,385.319794 512.322815,383.774872 
	C504.823517,382.902618 498.432373,379.408539 494.125702,372.814575 
	C493.588318,371.991760 492.826477,371.298615 492.092804,370.628387 
	C491.749146,370.314484 491.224884,370.198273 490.835571,370.017151 
	C490.448090,370.179199 489.963806,370.229156 489.881012,370.438141 
	C485.551788,381.368439 475.858612,383.204590 466.081940,383.338501 
	C455.862213,383.478485 445.481537,384.380402 435.371246,381.437683 
	C432.430389,380.581696 431.125732,382.433319 431.017059,385.307068 
	C430.860321,389.451538 431.072601,393.583099 430.539154,397.748138 
	C429.610138,405.001343 427.869049,411.594879 420.140289,414.380798 
	C412.594147,417.100952 405.085785,417.440918 398.310455,412.277222 
	C391.899170,407.390961 391.818756,399.895081 390.880432,392.851501 
	C390.574951,390.558136 390.828369,388.192230 390.798767,385.859863 
	C390.653809,374.448364 380.251373,367.812653 369.977203,372.626984 
	C358.548645,377.982300 346.609589,380.015472 334.073700,378.357361 
	C331.444794,378.009644 328.997345,378.108276 327.742462,380.982056 
	C323.934814,389.701813 315.980316,390.155670 308.332825,389.990875 
	C299.982819,389.810944 292.362549,387.281952 287.104370,379.839996 
	C284.312500,375.888672 281.079742,374.143494 275.301331,376.058716 
	C263.235840,380.057800 250.575287,378.741577 238.198837,376.867035 
	C232.909164,376.065857 227.890106,376.624451 222.873459,377.700806 
	C211.868317,380.062042 200.986389,379.462433 190.232376,376.593384 
	C185.713196,375.387726 181.296982,375.285309 176.931900,376.485992 
	C167.065460,379.199890 157.122696,378.974396 147.266418,377.107208 
	C141.825333,376.076477 136.680496,376.957672 131.413406,377.548004 
	C129.597534,377.751526 127.691841,378.401520 125.979294,378.067505 
	C117.571350,376.427673 113.777260,380.822144 110.101311,387.796143 
	C103.096603,401.085449 92.722481,410.488525 76.830597,412.715729 
	C63.195179,414.626709 53.562431,407.255524 52.829327,393.630432 
	C52.357033,384.852661 54.434673,377.223083 60.668739,370.786285 
	C66.704185,364.554565 68.523300,356.573395 68.749527,348.291656 
	C69.126762,334.482025 69.174118,320.660980 69.165863,306.844879 
	C69.163849,303.472748 67.742363,300.507111 65.336411,297.881348 
	C58.312260,290.215454 57.299480,275.219452 63.132626,266.664642 
	C67.378334,260.437927 74.263634,259.210480 80.832817,259.125397 
	C92.745354,258.971039 104.744125,257.468048 116.611115,260.732910 
	C119.860840,261.626984 122.279205,264.167511 125.486931,264.451569 
	C131.703247,254.543839 132.555649,243.806702 131.667480,232.703415 
	C131.192917,226.770721 126.999016,222.156952 126.317574,216.202240 
	C125.675003,210.587082 126.008995,205.246933 127.761482,199.965530 
	C129.108505,195.906067 132.012802,193.180923 135.998016,191.838562 
	C139.299484,190.726547 142.732162,189.305496 146.119659,189.270340 
	C159.557922,189.130859 173.312241,186.745834 186.320435,190.943787 
	C194.930176,193.722290 202.468842,194.816483 211.073090,191.010071 
	C217.596710,188.124115 225.133789,188.812180 232.785553,188.977478 
M385.518890,368.985504 
	C387.056183,369.590118 388.546143,370.465179 390.140411,370.744080 
	C393.655975,371.359131 395.026154,373.157349 395.404358,376.798645 
	C395.886414,381.439606 396.315430,386.058258 396.210907,390.711548 
	C396.123962,394.580688 396.652527,398.346313 397.662872,402.054535 
	C399.562408,409.026306 404.689178,411.080383 413.105103,410.635681 
	C420.186890,410.261475 423.608643,406.559845 424.760925,399.878662 
	C425.930389,393.098175 425.799103,386.300171 425.794739,379.486053 
	C425.793030,376.817352 425.722778,374.118378 428.593536,372.398560 
	C430.623474,373.487488 432.534760,375.060822 434.700012,375.584930 
	C448.323212,378.882416 462.093567,378.565491 475.808411,376.329773 
	C480.489410,375.566711 484.152863,372.961884 484.673462,367.553986 
	C484.969452,364.479004 484.173126,360.020416 487.329193,359.091064 
	C490.952545,358.024139 492.378571,362.664612 494.431763,365.062805 
	C499.498352,370.980804 503.787262,377.666992 512.705688,378.485779 
	C516.595032,378.842896 520.289734,378.124634 524.078430,377.887604 
	C529.335938,377.558594 531.864746,374.879364 532.922485,370.072784 
	C534.031677,365.032135 534.958496,359.983948 534.943604,354.795013 
	C534.893738,337.462524 534.886475,320.129883 534.820312,302.797455 
	C534.810547,300.233124 534.724731,297.495697 537.062927,295.984772 
	C544.818176,290.973450 543.489563,283.500061 543.181030,275.997864 
	C542.904968,269.286560 538.990601,266.594055 533.293884,265.460022 
	C522.582214,263.327728 511.698486,263.428589 501.035034,265.049561 
	C489.671326,266.776917 489.757782,267.345886 488.210876,279.015198 
	C488.167114,279.345276 488.170715,279.689240 488.075806,280.003632 
	C487.638519,281.451447 487.218933,283.024902 485.485992,283.361603 
	C483.917328,283.666412 483.170898,282.352081 482.323029,281.325745 
	C479.357300,277.735870 476.119720,274.337646 473.466461,270.531281 
	C470.513672,266.295105 466.928375,263.632355 461.694031,263.091400 
	C459.375702,262.851807 456.731659,262.041595 456.858765,259.025543 
	C457.206024,250.785950 453.827393,243.502625 451.603577,235.869110 
	C449.806885,229.701553 449.782898,223.305023 454.185272,217.822861 
	C458.580994,212.348953 460.042603,206.107544 459.809326,199.174210 
	C459.509552,190.265747 456.387482,186.758713 447.540680,186.305603 
	C445.546051,186.203445 443.489746,185.995956 441.551147,186.340042 
	C433.956299,187.688049 425.763458,187.749771 422.959747,197.590591 
	C420.383545,206.632782 420.016663,206.528259 410.460327,206.954971 
	C402.545197,207.308395 401.452362,206.875275 399.544312,199.304230 
	C397.713379,192.039093 393.435364,188.446411 386.183624,187.189468 
	C381.866119,186.441132 377.600861,186.068222 373.300995,186.303085 
	C369.831268,186.492569 366.055145,186.887756 364.067902,190.287918 
	C361.197113,195.199783 357.054077,195.580933 352.030457,194.861145 
	C342.384399,193.479080 332.567322,193.470459 323.646423,197.565063 
	C317.108673,200.565857 311.417572,202.336517 305.129822,197.592865 
	C303.752777,196.553925 301.724152,196.236267 299.936584,195.906067 
	C284.414490,193.038956 268.757111,194.158783 253.154068,194.701950 
	C247.346573,194.904129 241.626480,195.224396 235.795349,194.667313 
	C225.319641,193.666504 214.762787,193.480850 205.067963,198.550690 
	C200.754181,200.806549 196.832962,200.728348 192.768951,198.387894 
	C189.855576,196.710083 186.774338,195.755844 183.412308,195.206116 
	C172.136917,193.362442 160.808807,194.620590 149.513062,194.357880 
	C145.390137,194.262009 141.266174,195.235962 137.353806,196.791748 
	C134.834091,197.793732 133.047958,199.651901 132.498856,202.142090 
	C130.866745,209.543808 130.328369,216.879852 134.784714,223.734894 
	C136.614670,226.549866 136.852753,229.868317 137.381500,233.201721 
	C139.549896,246.871506 134.010696,259.099792 130.771652,271.747498 
	C130.264099,273.729370 128.529160,275.630005 126.214317,275.965179 
	C124.292435,276.243469 123.086197,274.689301 122.651840,273.040588 
	C121.218025,267.598083 117.070137,266.122589 112.211121,265.249451 
	C101.612900,263.345032 90.939034,264.193512 80.325417,264.535858 
	C75.894417,264.678802 70.859673,265.136047 67.651543,269.321503 
	C62.969231,275.430237 64.048737,290.111298 69.914810,295.173218 
	C73.157616,297.971497 74.323906,301.068451 74.285210,305.194885 
	C74.160179,318.526367 74.582809,331.869873 74.172432,345.189575 
	C73.849319,355.676819 72.800888,366.147278 64.465164,374.139862 
	C57.897305,380.437378 57.657299,388.667206 58.423351,396.923676 
	C58.743446,400.373627 59.825512,404.189270 63.492592,405.534973 
	C71.593964,408.507843 80.160179,408.943512 87.514267,404.283112 
	C97.793404,397.769165 106.036926,389.055450 109.579987,376.879120 
	C110.198494,374.753540 111.164154,372.984924 113.469780,372.951324 
	C122.613068,372.818115 131.751053,372.821686 140.759888,370.868774 
	C141.655075,370.674713 142.705917,371.188477 143.682739,371.382690 
	C154.918320,373.616150 166.203812,373.561920 177.375504,371.316132 
	C182.091080,370.368256 186.420380,370.534424 191.046051,371.657135 
	C200.463318,373.942902 209.988876,374.697937 219.693832,372.984955 
	C224.724792,372.096924 229.722549,369.897369 234.935349,371.024750 
	C244.968964,373.194702 255.119019,373.046051 265.231293,372.575592 
	C269.904510,372.358185 274.960358,372.379333 278.912537,368.842773 
	C280.369354,367.539215 282.091522,367.824249 283.497009,368.976135 
	C285.550629,370.659271 287.915527,372.209198 289.359344,374.348114 
	C296.554535,385.007233 306.666107,386.102386 318.007599,383.585358 
	C320.609955,383.007812 322.532349,381.535126 323.502441,378.982635 
	C325.943176,372.560669 327.008942,372.065704 333.722137,373.174286 
	C345.018951,375.039825 356.342560,373.871277 366.234009,368.599915 
	C373.175598,364.900543 378.628204,364.132202 385.518890,368.985504 
z"/>
<path fill="#000000" opacity="1.000000" stroke="none" 
	d="
M425.631653,356.875549 
	C416.348633,358.575378 411.848816,362.654053 412.643890,372.934906 
	C413.235840,380.589020 412.365814,388.523529 412.516937,396.339783 
	C412.551025,398.101562 413.213318,400.064728 410.810059,400.912476 
	C408.774872,399.910156 409.381470,398.096802 409.349457,396.517181 
	C409.137146,386.044250 408.890259,375.571625 408.772797,365.097534 
	C408.740875,362.249634 408.089386,360.713287 404.819183,360.000824 
	C380.252808,354.648865 368.937347,333.335663 377.469513,309.520630 
	C381.627014,297.916107 389.323853,290.356964 401.126617,287.275635 
	C404.997650,286.264954 406.398865,284.267944 406.279877,280.668732 
	C406.181061,277.681152 405.980865,274.696533 405.799316,271.712189 
	C405.623413,268.820160 403.446991,267.970917 401.171906,267.179779 
	C394.569519,264.883881 387.970001,262.578857 381.391785,260.214966 
	C379.865417,259.666473 378.136993,259.351654 376.987793,257.379181 
	C387.454193,237.679291 390.827942,218.078888 372.831635,200.086151 
	C378.429169,197.793274 383.422119,199.321808 388.550812,204.631149 
	C385.376373,207.264328 386.424561,209.748337 388.547699,212.764145 
	C394.307373,220.945435 394.550293,230.541428 394.717041,240.069580 
	C394.751862,242.061020 394.744629,244.100876 394.366852,246.042572 
	C393.377625,251.126953 395.073822,254.810089 399.615021,257.249817 
	C401.676453,258.357300 402.432678,260.977875 405.260010,262.025391 
	C407.763641,257.447174 406.848572,252.306076 407.434753,247.562271 
	C407.971649,243.217133 407.733521,238.886185 406.643951,234.206802 
	C405.391663,228.828674 408.796021,222.366226 411.184265,216.415848 
	C412.141937,223.456177 417.167358,229.751694 414.066833,237.146103 
	C412.508484,240.862625 414.419220,244.359421 414.408783,247.977081 
	C414.395996,252.411728 414.957825,256.854309 416.481903,261.111176 
	C424.514984,258.407379 427.606323,253.056763 427.198029,245.115646 
	C426.595367,233.393280 427.172913,221.760345 433.954468,211.444366 
	C434.672516,210.352127 435.936646,208.937408 435.099487,207.830704 
	C431.088348,202.528076 436.160828,201.598984 438.949432,200.068665 
	C441.873566,198.463974 445.249451,198.036209 448.524963,199.196518 
	C449.353363,200.925858 448.143219,201.775406 447.250427,202.713516 
	C434.268188,216.354294 434.485779,232.062637 440.769562,248.262894 
	C444.577271,258.079559 445.090332,257.900269 435.067322,261.801331 
	C431.033661,263.371246 427.038635,265.111328 422.888916,266.292053 
	C418.816040,267.450958 416.661346,269.761749 416.333252,273.955688 
	C416.203979,275.608551 415.766113,277.236206 415.489471,278.878815 
	C414.691467,283.617096 415.403900,286.603302 421.127411,288.311768 
	C438.864746,293.606445 446.110504,312.921387 443.855286,328.747467 
	C442.165741,340.604065 437.018341,350.640839 425.631653,356.875549 
M390.857727,305.437195 
	C386.289246,318.144653 386.150879,330.813080 391.545166,343.296844 
	C393.691620,348.264252 397.559235,351.620331 402.856232,353.076385 
	C407.457611,354.341217 408.638580,353.292786 408.389893,348.645813 
	C408.132385,343.834137 408.054077,339.013062 407.837494,334.198822 
	C407.763519,332.554901 408.076721,330.696625 406.954102,329.369904 
	C403.336456,325.094421 402.097443,320.905548 406.531219,316.357422 
	C407.116821,315.756653 407.215332,314.482971 407.199097,313.526733 
	C407.111694,308.374756 406.851013,303.225586 406.780487,298.073608 
	C406.727386,294.195740 404.849091,293.569183 401.585968,294.748413 
	C396.614502,296.545013 392.975708,299.672638 390.857727,305.437195 
M414.736298,310.393890 
	C413.568146,314.095245 415.906494,316.735962 417.559204,319.557648 
	C418.514954,321.189453 419.465973,322.684967 417.981201,324.544800 
	C411.883514,332.182831 414.215973,341.368713 413.534271,349.959442 
	C413.259552,353.421631 415.920837,353.547028 418.386932,352.414734 
	C423.630676,350.007080 427.297791,346.028625 429.098694,340.526031 
	C432.501587,330.128632 432.612946,319.662659 429.611633,309.125458 
	C428.202576,304.178467 425.914948,299.885437 421.699463,296.774658 
	C420.327454,295.762207 418.923279,294.829132 417.124176,295.494690 
	C415.148834,296.225464 415.217957,297.997620 415.149902,299.668488 
	C415.014648,302.988586 414.883087,306.308838 414.736298,310.393890 
z"/>
<path fill="#000000" opacity="1.000000" stroke="none" 
	d="
M493.194092,338.787231 
	C483.117706,326.244507 473.263123,313.981628 462.962036,301.163116 
	C460.852173,305.987061 461.231415,310.067871 461.476685,313.905273 
	C462.200562,325.229706 461.024323,336.516083 461.278534,347.822144 
	C461.442413,355.110596 462.271973,356.330902 469.595825,357.656311 
	C471.911591,358.075348 473.299561,358.938629 473.233612,361.458893 
	C473.157532,364.367798 471.190308,364.370331 469.046448,364.357635 
	C461.056152,364.310364 453.065430,364.336334 445.074890,364.325806 
	C442.986511,364.323059 440.957214,364.232849 440.817352,361.372040 
	C440.689789,358.763428 442.215240,357.895996 444.498596,357.657623 
	C449.851227,357.098877 451.734375,353.920563 451.668762,348.759491 
	C451.391846,326.975159 451.274506,305.188751 451.111023,283.403015 
	C451.101013,282.072540 451.196533,280.741241 451.242523,279.410339 
	C451.321747,277.118378 452.582336,275.850891 454.668030,275.038086 
	C457.067780,274.102966 458.396912,275.320679 459.710388,277.011536 
	C469.203491,289.232483 478.659760,301.482849 488.250977,313.626526 
	C494.638519,321.713959 501.218964,329.649292 507.749969,337.622498 
	C508.233368,338.212585 509.014984,338.558380 509.598633,338.975403 
	C511.246429,337.902100 510.792267,336.435028 510.793823,335.194611 
	C510.811127,321.373260 510.825867,307.551483 510.727051,293.730591 
	C510.678375,286.922028 509.897949,285.974731 503.137634,284.266998 
	C501.010254,283.729614 499.866760,282.727020 499.963470,280.546356 
	C500.050140,278.592316 501.002991,277.526459 503.116882,277.535431 
	C512.242920,277.574127 521.369263,277.551971 530.704224,277.551971 
	C531.567688,281.229553 532.179810,284.107239 527.164734,284.437134 
	C522.135376,284.767944 521.204407,288.348145 521.215637,292.600067 
	C521.256470,308.082764 521.230164,323.565613 521.227173,339.048401 
	C521.225769,346.208679 521.195984,353.369049 521.228821,360.529144 
	C521.239990,362.973389 521.072449,365.200958 518.298096,366.228516 
	C515.598938,367.228149 514.344177,365.440643 512.974243,363.710510 
	C506.464081,355.488678 499.936981,347.280243 493.194092,338.787231 
z"/>
<path fill="#000000" opacity="1.000000" stroke="none" 
	d="
M169.234680,352.705109 
	C171.521774,353.851288 174.719101,353.692810 174.087189,357.109375 
	C173.483200,360.375000 170.499771,359.659576 168.367996,359.684357 
	C162.725433,359.750000 157.078323,359.517914 151.434784,359.346100 
	C149.768890,359.295410 147.982635,359.265350 147.824722,356.882996 
	C147.684418,354.766388 148.770294,353.890747 150.754303,353.708618 
	C154.868332,353.330780 155.755280,350.640717 155.681778,347.028900 
	C155.416504,333.997070 157.769211,335.370544 144.075394,335.337494 
	C139.082794,335.325439 134.090012,335.338501 129.097458,335.365234 
	C125.893852,335.382385 124.114868,336.763214 124.300087,340.231079 
	C124.433029,342.720306 124.259895,345.224640 124.349625,347.717682 
	C124.462959,350.866364 125.701607,353.227936 129.184631,353.627533 
	C131.489792,353.891968 133.132156,354.887115 132.767731,357.403046 
	C132.378601,360.089661 130.056900,359.320953 128.354401,359.337982 
	C122.534538,359.396240 116.713089,359.408844 110.893692,359.330688 
	C109.193474,359.307892 106.891403,359.921844 106.514809,357.277313 
	C106.210182,355.138092 107.446701,353.888397 109.566750,353.458893 
	C112.798973,352.804077 112.967949,350.417969 112.928215,347.721161 
	C112.771431,337.078033 113.129028,326.499390 115.507530,316.022125 
	C118.544090,302.646179 126.529663,293.200775 137.911789,286.184753 
	C139.861191,284.983154 141.379684,285.215302 143.348190,286.488892 
	C157.603119,295.711792 165.397644,308.631714 166.559753,325.625732 
	C167.036789,332.601746 167.352219,339.566803 167.269730,346.557495 
	C167.245026,348.652100 166.741684,350.971069 169.234680,352.705109 
M143.674606,296.826721 
	C142.054779,295.041351 140.435501,293.056274 138.027237,295.792328 
	C131.117920,303.641968 125.264732,311.926483 125.135712,323.073761 
	C125.087021,327.280579 126.712433,328.735260 130.703873,328.635040 
	C136.690857,328.484650 142.684631,328.630707 148.674896,328.579315 
	C155.299454,328.522522 156.297821,327.045715 155.346710,320.317261 
	C154.086853,311.404694 149.844803,304.043854 143.674606,296.826721 
z"/>
<path fill="#000000" opacity="1.000000" stroke="none" 
	d="
M273.235840,222.328705 
	C273.234406,235.452438 273.400787,248.117569 273.153381,260.774628 
	C273.060089,265.545685 274.947784,268.006195 279.486786,268.582672 
	C281.419617,268.828186 283.378235,268.972748 283.100220,271.573822 
	C282.825714,274.142517 280.608093,273.939240 278.847137,273.959625 
	C272.515320,274.033081 266.181580,274.020966 259.849579,273.951263 
	C258.229645,273.933441 256.314789,274.008209 255.845016,271.829285 
	C255.328705,269.434418 257.019775,268.503876 258.873901,268.026825 
	C262.166901,267.179504 262.716248,264.839020 262.713074,261.919281 
	C262.697998,248.086731 262.716949,234.253815 262.811951,220.421646 
	C262.835205,217.035919 261.921967,214.557983 258.256317,213.753967 
	C256.423859,213.352066 255.265762,212.267136 255.657440,210.182022 
	C256.015503,208.275772 257.523895,208.010788 259.074219,207.953156 
	C268.059845,207.619141 277.045685,207.281494 286.033783,207.030579 
	C287.513641,206.989258 289.039734,207.229431 290.485718,207.581055 
	C298.088806,209.429901 305.011902,212.529343 306.963928,220.959564 
	C308.969360,229.620468 306.420654,237.033096 299.163391,242.644455 
	C293.218811,247.240829 293.462463,247.199203 298.011536,253.239044 
	C304.821899,262.281219 311.399780,271.500092 317.975281,280.716064 
	C319.235565,282.482452 321.404907,284.591888 318.490570,286.703003 
	C316.042480,288.476379 314.520325,286.514496 313.062225,284.875793 
	C302.766693,273.305359 292.470490,261.735413 282.197113,250.145340 
	C280.657532,248.408417 278.949097,246.726715 280.233765,243.978683 
	C281.358002,241.573822 283.270020,241.478317 285.583313,241.309662 
	C292.858124,240.779251 297.376801,234.147156 296.594116,225.565994 
	C295.889221,217.837646 290.770081,213.176590 283.392914,213.546112 
	C275.052643,213.963882 273.617432,215.140015 273.235840,222.328705 
z"/>
<path fill="#000000" opacity="1.000000" stroke="none" 
	d="
M343.889862,330.194885 
	C337.908356,327.192657 332.270508,324.377960 327.089264,320.660736 
	C320.792877,316.143463 316.922607,310.476471 318.099518,302.539398 
	C319.422607,293.616791 325.591980,288.845581 333.859985,287.319122 
	C342.439117,285.735168 351.102173,285.881989 359.116821,290.417145 
	C362.865753,292.538544 364.806061,295.502716 364.158997,299.825470 
	C363.506317,304.185730 360.718140,307.035980 356.836243,308.630768 
	C353.881439,309.844666 351.380402,307.329010 352.210327,303.872711 
	C353.081940,300.242950 352.878479,297.216705 349.342316,295.246918 
	C344.004089,292.273254 338.499786,292.061584 333.180054,295.106171 
	C329.614868,297.146576 328.488892,300.603699 329.187805,304.585907 
	C329.923889,308.779663 333.233429,310.897888 336.373352,313.069305 
	C344.181885,318.469330 353.140106,321.828278 360.970551,327.308197 
	C369.565155,333.322937 369.113464,346.460327 363.788330,352.623260 
	C361.642029,355.107239 359.070312,356.978577 356.080322,357.976135 
	C344.707153,361.770691 333.447144,361.430450 322.585938,356.096558 
	C317.392151,353.545959 314.299622,349.143646 314.403961,343.347351 
	C314.489227,338.608398 318.051483,335.748199 321.799438,333.335938 
	C323.475922,332.256897 325.159363,331.762421 326.846802,333.185608 
	C328.472168,334.556396 328.746765,336.205444 327.637115,338.079254 
	C325.780975,341.213623 326.748688,344.203735 328.259644,347.091858 
	C332.375244,354.958496 347.803741,356.642578 353.609192,349.886414 
	C357.398987,345.475983 357.065247,339.549164 352.698639,335.566711 
	C350.218201,333.304474 347.300079,331.682709 343.889862,330.194885 
z"/>
<path fill="#000000" opacity="1.000000" stroke="none" 
	d="
M83.914322,370.893646 
	C87.480507,363.178833 87.155327,355.182648 87.365623,347.447876 
	C87.840622,329.977936 87.593613,312.488068 87.618980,295.006317 
	C87.629860,287.508942 87.145569,286.790863 79.928635,284.568359 
	C77.914803,283.948151 76.688370,283.079041 76.762741,280.811432 
	C76.845802,278.278931 78.451530,277.913879 80.489227,277.906403 
	C89.484474,277.873413 98.479713,277.817413 107.474663,277.736877 
	C109.582413,277.717987 111.027374,278.310547 111.178055,280.733429 
	C111.321259,283.036102 110.143814,283.851593 108.060295,284.416656 
	C100.852936,286.371338 100.433517,286.964966 100.401604,294.311310 
	C100.318382,313.467590 100.421631,332.625854 100.180725,351.779907 
	C99.955444,369.691681 92.747643,383.958069 77.344460,393.714539 
	C75.248367,395.042206 73.513214,396.296906 71.254082,393.898895 
	C68.815369,391.310303 70.678406,389.631348 72.271240,387.996460 
	C77.073921,383.066956 81.466713,377.885468 83.914322,370.893646 
z"/>
<path fill="#000000" opacity="1.000000" stroke="none" 
	d="
M188.694305,305.815247 
	C184.665512,314.658325 183.792007,323.675201 186.020279,332.531097 
	C191.504776,354.328278 213.075699,356.923615 228.097382,347.395355 
	C229.898483,346.252930 231.453339,343.408417 233.855545,346.449036 
	C236.269730,349.504883 233.257309,351.068542 231.704559,352.621094 
	C219.173904,365.150177 193.338196,363.280792 181.337280,349.092102 
	C169.815079,335.469299 169.284973,314.258728 180.110489,300.004974 
	C188.941437,288.377411 206.188171,283.201355 220.035294,288.071838 
	C224.183289,289.530853 228.178818,291.089630 232.055405,287.221375 
	C233.181335,286.097839 235.301208,285.960785 236.782181,286.888458 
	C238.355164,287.873718 237.627060,289.607483 237.271133,291.020355 
	C235.767715,296.988403 234.177887,302.934631 232.663803,308.900055 
	C232.148163,310.931671 231.698288,312.860046 228.873749,312.471375 
	C226.242538,312.109283 225.561737,310.357605 225.894638,308.166779 
	C227.436157,298.021515 219.622238,294.125824 211.089432,293.431274 
	C201.184845,292.625061 193.567993,296.478607 188.694305,305.815247 
z"/>
<path fill="#000000" opacity="1.000000" stroke="none" 
	d="
M235.289001,267.422821 
	C239.895401,266.221649 244.009125,264.915497 247.416641,262.052338 
	C248.766052,260.918488 250.216568,259.865265 251.714767,261.655579 
	C253.221130,263.455627 252.367935,265.035736 250.886765,266.443817 
	C243.768707,273.210480 235.099625,275.735718 225.597717,274.773163 
	C206.345428,272.822937 195.884735,259.500916 196.418716,239.984390 
	C196.876999,223.234650 209.481552,209.121292 222.046310,207.294083 
	C228.050812,206.420883 233.638535,207.492020 239.153381,209.503922 
	C242.026138,210.551941 244.585342,210.814438 247.012390,208.504578 
	C248.447433,207.138824 250.289642,206.666382 252.060150,207.789307 
	C253.935852,208.978958 252.980881,210.759705 252.591309,212.319260 
	C251.260788,217.645844 249.906250,222.966736 248.508835,228.276093 
	C248.047897,230.027344 247.061615,231.294769 244.995468,231.128815 
	C242.961411,230.965408 242.621414,229.467957 242.723816,227.900406 
	C243.379471,217.862808 236.208344,214.561508 229.890533,213.652802 
	C221.969940,212.513580 213.631012,217.542572 210.716949,225.083878 
	C206.392960,236.273911 207.280350,237.606232 219.053452,237.629288 
	C222.719406,237.636475 226.386017,237.627228 230.050995,237.696365 
	C232.153214,237.736038 234.814987,237.263840 234.643967,240.642471 
	C234.494858,243.587967 232.448639,244.428482 229.773209,244.408966 
	C225.110229,244.374908 220.446503,244.440689 215.783112,244.467880 
	C208.513000,244.510269 207.140091,246.640533 210.040680,253.309616 
	C213.615250,261.528320 221.318665,269.302094 235.289001,267.422821 
z"/>
<path fill="#000000" opacity="1.000000" stroke="none" 
	d="
M160.727280,246.309418 
	C160.735840,251.195938 160.994385,255.712173 160.597031,260.169952 
	C160.187790,264.761230 161.321075,267.705688 166.375381,268.099426 
	C167.195816,268.163361 168.005188,268.436462 168.806870,268.658997 
	C170.262222,269.062927 171.160248,269.925446 170.867340,271.550812 
	C170.619690,272.925110 169.634979,273.434082 168.333191,273.462738 
	C161.180603,273.620239 154.028412,273.811646 146.874969,273.902954 
	C145.376923,273.922058 143.705078,273.672089 143.324738,271.820465 
	C142.953705,270.014191 144.101044,269.132446 145.713730,268.613251 
	C149.508881,267.391266 150.659668,264.352905 150.643066,260.792877 
	C150.601212,251.824265 150.602585,242.848648 150.221313,233.891373 
	C150.035782,229.532425 150.568176,225.251892 150.691269,220.933472 
	C150.792328,217.387863 149.706512,214.708023 146.074829,213.594559 
	C144.302963,213.051300 142.983261,212.169098 143.447250,210.066513 
	C143.928085,207.887634 145.771790,208.007385 147.434601,207.942627 
	C155.583298,207.625153 163.730667,207.133896 171.881943,207.054047 
	C186.080093,206.914978 194.560867,215.755035 193.784561,229.568512 
	C192.964081,244.168182 182.448166,253.186600 168.513519,251.214478 
	C166.690369,250.956451 164.629700,250.724960 164.694336,248.206711 
	C164.763824,245.499390 166.458694,245.342468 168.837311,245.401108 
	C175.586472,245.567429 178.684387,243.058182 181.315094,236.867767 
	C183.790955,231.041718 182.708878,225.258774 180.984039,219.788284 
	C178.891693,213.152191 167.767929,210.869934 162.680588,215.577728 
	C161.130051,217.012634 160.674942,218.846817 160.697525,220.996277 
	C160.784729,229.301056 160.706085,237.607590 160.727280,246.309418 
z"/>
<path fill="#000000" opacity="1.000000" stroke="none" 
	d="
M367.929993,207.091629 
	C369.763580,207.394608 370.958557,208.077972 370.541931,209.766144 
	C368.989929,216.054489 367.395172,222.334290 365.665131,228.575363 
	C365.170471,230.359772 363.752136,231.255859 361.766937,230.756699 
	C359.902008,230.287796 359.824829,228.849716 359.690247,227.266861 
	C358.786194,216.633209 349.336304,210.688629 338.704712,214.043427 
	C331.453644,216.331482 327.123138,221.365250 324.710541,228.481979 
	C321.512848,237.914597 321.361206,247.146118 326.225555,255.989822 
	C332.111084,266.690125 345.100067,270.325256 356.996765,264.830750 
	C358.952698,263.927368 360.794647,262.763794 362.640625,261.640533 
	C363.974304,260.829010 365.297485,259.976227 366.681458,261.357971 
	C368.179535,262.853699 367.586487,264.388519 366.486725,265.829224 
	C363.285278,270.023163 358.802155,272.249451 353.859253,273.353607 
	C338.517303,276.780731 323.886810,273.682007 315.957184,260.579529 
	C304.474945,241.606918 312.437134,213.397141 335.435913,208.176926 
	C340.808716,206.957443 346.494568,206.235641 351.686981,208.108948 
	C357.369232,210.158966 362.463074,210.529266 367.929993,207.091629 
z"/>
<path fill="#000000" opacity="1.000000" stroke="none" 
	d="
M265.856415,328.163025 
	C263.440216,325.544403 264.950104,323.739471 266.428833,321.801727 
	C272.178223,314.267578 277.875153,306.693207 283.557220,299.108063 
	C284.436554,297.934174 285.442902,296.744110 285.167358,295.106567 
	C284.934235,294.817291 284.781250,294.477020 284.519257,294.326385 
	C282.550659,293.194641 278.880188,293.744904 279.452606,290.045074 
	C280.042755,286.230469 283.398865,287.862366 285.579956,287.751831 
	C290.729584,287.490753 295.898254,287.607513 301.059174,287.567017 
	C302.758087,287.553650 304.604065,287.437012 304.924408,289.702850 
	C305.181458,291.520844 304.455200,293.135864 302.602905,293.645874 
	C297.530792,295.042297 294.735138,298.974792 291.858643,302.875641 
	C288.500854,307.429077 285.480621,312.306549 281.630890,316.401306 
	C277.678925,320.604828 278.230835,323.817535 281.550751,327.988159 
	C290.977844,339.830963 300.208221,351.835632 309.254486,363.971558 
	C310.902802,366.182861 315.715057,368.871185 311.237610,372.083313 
	C307.625122,374.674835 305.958466,370.225037 303.950195,368.151001 
	C291.226074,355.010040 279.512207,340.907104 265.856415,328.163025 
z"/>
<path fill="#000000" opacity="1.000000" stroke="none" 
	d="
M249.823120,332.996643 
	C249.883469,322.348694 249.877167,312.199554 249.976151,302.051422 
	C250.017746,297.788239 249.687866,293.967682 244.313705,293.126648 
	C242.664261,292.868530 241.681610,291.599731 241.964157,289.846436 
	C242.253891,288.048492 243.607101,287.526581 245.287109,287.543304 
	C252.108505,287.611145 258.930206,287.649567 265.751648,287.713013 
	C267.391541,287.728271 268.807953,288.182373 268.860565,290.142761 
	C268.905914,291.832153 268.094727,293.116028 266.318146,293.284698 
	C261.513702,293.740784 261.200592,296.966766 261.225128,300.795746 
	C261.321167,315.771912 261.318390,330.749359 261.228912,345.725586 
	C261.203522,349.970062 261.830811,353.392334 267.026001,353.825348 
	C269.095123,353.997772 269.756195,355.645325 269.714020,357.418671 
	C269.663910,359.524353 268.013611,359.488892 266.446320,359.501465 
	C259.811737,359.554779 253.176224,359.740143 246.543823,359.656830 
	C244.711319,359.633789 242.211639,359.838562 241.932877,356.981537 
	C241.663956,354.225433 243.695847,353.886383 245.791550,353.492004 
	C248.766663,352.932159 249.718704,350.765320 249.720322,347.966553 
	C249.723129,343.142975 249.770386,338.319427 249.823120,332.996643 
z"/>
</svg>